<svg version="1.1" xmlns="http://www.w3.org/2000/svg" xmlns:xlink="http://www.w3.org/1999/xlink" viewBox="0.00 5.00 24.00 14.00"><title>Tradingview icon</title>
<path d="M21.1177 10.4419C21.5432 11.0663 21.786 11.7996 21.8181 12.5575C22.5458 12.8183 23.159 13.3311 23.5497 14.0054C23.9403 14.6796 24.0832 15.4719 23.9532 16.2425C23.8231 17.0131 23.4285 17.7123 22.8389 18.2169C22.2493 18.7214 21.5027 18.9988 20.7308 19H4.36622C3.21585 19.0016 2.11172 18.5415 1.2955 17.7205L8.23845 12.1546C8.49301 12.2923 8.78393 12.3704 9.09377 12.3704C9.36184 12.3708 9.62664 12.3109 9.86909 12.1951L13.1784 15.1276C13.0905 15.4085 13.0705 15.7066 13.12 15.997C13.1695 16.2873 13.287 16.5614 13.4628 16.7962C13.6385 17.031 13.8674 17.2197 14.13 17.3464C14.3927 17.4731 14.6816 17.5341 14.9723 17.5242C15.2631 17.5144 15.5473 17.4341 15.8011 17.29C16.0548 17.1459 16.2707 16.9422 16.4307 16.6961C16.5906 16.4499 16.6899 16.1685 16.7202 15.8755C16.7505 15.5824 16.7109 15.2863 16.6048 15.0119L21.1177 10.4419ZM20.0893 9.40032L15.5771 13.9703C15.3653 13.8863 15.1398 13.8433 14.9123 13.8436C14.6442 13.8432 14.3794 13.9031 14.137 14.0189L10.8277 11.0864C10.9128 10.8141 10.9342 10.5255 10.8902 10.2434C10.8463 9.96128 10.7381 9.69338 10.5743 9.46089C10.4105 9.2284 10.1955 9.03768 9.94638 8.90382C9.69725 8.76996 9.42081 8.69662 9.13888 8.68961C8.85695 8.68259 8.57728 8.74208 8.32197 8.86339C8.06665 8.98469 7.8427 9.16448 7.66781 9.38854C7.49291 9.6126 7.37188 9.87479 7.31426 10.1544C7.25665 10.434 7.26404 10.7233 7.33585 10.9995L0.444537 16.5235C0.117066 15.846 -0.0337856 15.095 0.00633966 14.3419C0.046465 13.5887 0.276232 12.8585 0.673773 12.2207C1.07131 11.5829 1.6234 11.0587 2.27749 10.6981C2.93158 10.3375 3.66591 10.1524 4.41059 10.1605C4.57724 8.81433 5.19736 7.56761 6.16628 6.63076C7.13521 5.69391 8.39359 5.12431 9.72906 5.0181C11.0645 4.91188 12.3953 5.27556 13.4967 6.04775C14.5981 6.81994 15.4028 7.95334 15.7749 9.25667C16.3937 8.8828 17.101 8.686 17.8216 8.68726C18.6631 8.68726 19.4442 8.95098 20.0893 9.40032Z" fill="#3BB3E4"></path>
</svg>